<svg width="28" height="20" viewBox="0 0 28 20" fill="none" xmlns="http://www.w3.org/2000/svg">
<path d="M3.33332 20C2.59999 20 1.97243 19.7554 1.45066 19.2663C0.92799 18.7763 0.666656 18.1875 0.666656 17.5V2.5C0.666656 1.8125 0.92799 1.22417 1.45066 0.735C1.97243 0.245 2.59999 0 3.33332 0H24.6667C25.4 0 26.028 0.245 26.5507 0.735C27.0724 1.22417 27.3333 1.8125 27.3333 2.5V17.5C27.3333 18.1875 27.0724 18.7763 26.5507 19.2663C26.028 19.7554 25.4 20 24.6667 20H3.33332ZM14 11.25L3.33332 5V17.5H24.6667V5L14 11.25ZM14 8.75L24.6667 2.5H3.33332L14 8.75ZM3.33332 5V2.5V17.5V5Z" fill="#1C1B1F"/>
</svg>
